<?xml version="1.0" standalone="no"?>
<!DOCTYPE svg PUBLIC "-//W3C//DTD SVG 20010904//EN"
 "http://www.w3.org/TR/2001/REC-SVG-20010904/DTD/svg10.dtd">
<svg version="1.0" xmlns="http://www.w3.org/2000/svg"
 width="880.000000pt" height="880.000000pt" viewBox="0 0 880.000000 880.000000"
 preserveAspectRatio="xMidYMid meet">
<metadata>
Created by potrace 1.14, written by Peter Selinger 2001-2017
</metadata>
<g transform="translate(0.000000,880.000000) scale(0.100000,-0.100000)"
fill="#000000" stroke="none">
<path d="M3860 8790 c0 -5 -9 -10 -20 -10 -11 0 -20 -7 -20 -15 0 -9 -16 -32
-36 -51 l-35 -36 -18 21 c-22 25 -31 27 -31 6 0 -20 -45 -65 -65 -65 -8 0 -15
-4 -15 -10 0 -5 -9 -10 -20 -10 -11 0 -20 -4 -20 -10 0 -5 -9 -10 -20 -10 -13
0 -20 7 -20 20 0 12 7 20 16 20 20 0 49 29 39 38 -4 4 -10 1 -12 -5 -3 -7 -12
-13 -22 -13 -9 0 -23 -9 -31 -20 -10 -13 -26 -20 -49 -20 -22 0 -40 -7 -54
-22 -13 -16 -21 -19 -24 -10 -3 6 -12 12 -22 12 -9 0 -23 9 -31 20 -8 12 -26
20 -42 20 -15 0 -28 5 -28 10 0 17 -70 11 -88 -7 -12 -12 -13 -18 -4 -21 14
-4 16 -42 2 -42 -5 0 -10 5 -10 10 0 6 -47 10 -120 10 -73 0 -120 -4 -120 -10
0 -5 -9 -10 -20 -10 -13 0 -20 -7 -20 -20 0 -11 5 -20 10 -20 6 0 10 -13 10
-30 0 -16 5 -30 10 -30 23 0 8 -52 -25 -85 -40 -41 -45 -42 -45 -15 0 17 -7
20 -50 20 -27 0 -50 -4 -50 -10 0 -5 18 -10 40 -10 22 0 40 -4 40 -10 0 -5 -4
-10 -10 -10 -5 0 -10 -9 -10 -20 0 -13 7 -20 20 -20 11 0 20 -4 20 -10 0 -5
14 -10 30 -10 23 0 30 -4 30 -20 0 -11 5 -20 10 -20 6 0 10 9 10 20 0 11 5 20
10 20 15 0 12 -29 -4 -46 -8 -8 -22 -14 -30 -14 -19 0 -21 -17 -4 -22 8 -3 3
-14 -14 -31 -19 -19 -37 -27 -63 -27 -19 0 -35 -4 -35 -10 0 -5 -9 -10 -20
-10 -11 0 -20 -4 -20 -10 0 -5 -8 -10 -18 -10 -10 0 -24 -9 -32 -20 -8 -11
-21 -20 -30 -20 -9 0 -22 -9 -30 -20 -8 -11 -21 -20 -28 -20 -7 0 -31 -18 -52
-40 -21 -22 -46 -40 -54 -40 -9 0 -16 -4 -16 -10 0 -5 -7 -10 -15 -10 -23 0
-65 -46 -65 -70 0 -12 -21 -42 -50 -70 -34 -33 -50 -57 -50 -74 0 -14 -4 -26
-10 -26 -5 0 -10 -8 -10 -18 0 -10 -9 -24 -20 -32 -11 -8 -20 -21 -20 -30 0
-9 -9 -22 -20 -30 -11 -8 -20 -22 -20 -32 0 -10 -4 -18 -10 -18 -5 0 -10 -9
-10 -20 0 -11 -4 -20 -10 -20 -5 0 -10 -13 -10 -30 0 -16 -4 -30 -10 -30 -5 0
-10 -9 -10 -20 0 -11 -4 -20 -10 -20 -5 0 -10 -13 -10 -30 0 -16 -4 -30 -10
-30 -5 0 -10 -13 -10 -30 0 -16 -4 -30 -10 -30 -5 0 -10 -22 -10 -50 0 -27 -4
-50 -10 -50 -5 0 -10 -9 -10 -20 0 -11 -4 -20 -10 -20 -5 0 -10 -13 -10 -30 0
-16 -4 -30 -10 -30 -5 0 -10 -9 -10 -20 0 -11 -4 -20 -10 -20 -5 0 -10 -17
-10 -38 0 -26 -6 -42 -20 -52 -11 -8 -20 -22 -20 -32 0 -10 -4 -18 -10 -18 -5
0 -10 -9 -10 -20 0 -16 -7 -20 -30 -20 -27 0 -30 -3 -30 -30 0 -16 5 -30 10
-30 6 0 10 -8 10 -18 0 -10 9 -24 20 -32 12 -8 20 -26 20 -42 0 -15 5 -28 10
-28 6 0 10 -9 10 -20 0 -11 5 -20 10 -20 6 0 10 -40 10 -100 0 -93 1 -100 20
-100 16 0 20 -7 20 -30 0 -16 5 -30 10 -30 6 0 10 -22 10 -50 0 -27 5 -50 10
-50 15 0 12 -77 -2 -84 -10 -5 -10 -7 0 -12 6 -3 12 -19 12 -35 0 -16 5 -29
10 -29 6 0 10 -9 10 -20 0 -11 5 -20 10 -20 6 0 10 -13 10 -30 l0 -30 -70 0
c-40 0 -70 -4 -70 -10 0 -6 -93 -10 -260 -10 -167 0 -260 -4 -260 -10 0 -6
-37 -10 -90 -10 -53 0 -90 4 -90 10 0 6 -9 10 -20 10 -17 0 -20 -7 -20 -50 0
-27 5 -50 10 -50 6 0 10 -27 10 -60 0 -33 4 -60 10 -60 6 0 10 -22 10 -50 0
-27 5 -50 10 -50 6 0 10 -18 10 -40 0 -22 5 -40 10 -40 6 0 10 -22 10 -50 0
-27 5 -50 10 -50 6 0 10 -22 10 -50 0 -27 5 -50 10 -50 6 0 10 -18 10 -40 0
-22 5 -40 10 -40 6 0 10 -27 10 -60 0 -33 4 -60 10 -60 6 0 10 -18 10 -40 0
-22 5 -40 10 -40 6 0 10 -22 10 -50 0 -27 5 -50 10 -50 6 0 10 -22 10 -50 0
-27 5 -50 10 -50 6 0 10 -18 10 -40 0 -22 5 -40 10 -40 6 0 10 -21 10 -46 0
-26 6 -51 14 -60 17 -16 66 -19 66 -4 0 16 70 12 87 -5 14 -14 13 -18 -6 -34
-12 -10 -21 -24 -21 -30 0 -19 -53 -67 -58 -53 -5 16 -39 16 -45 0 -4 -10 -8
-9 -17 2 -9 11 -13 12 -17 3 -2 -8 -22 -13 -44 -13 l-39 0 0 60 c0 33 -4 60
-10 60 -5 0 -10 18 -10 40 0 22 -4 40 -10 40 -5 0 -10 23 -10 50 0 28 -4 50
-10 50 -5 0 -10 23 -10 50 0 28 -4 50 -10 50 -5 0 -10 18 -10 40 0 22 -4 40
-10 40 -5 0 -10 23 -10 50 0 28 -4 50 -10 50 -5 0 -10 18 -10 40 0 22 -4 40
-10 40 -5 0 -10 23 -10 50 0 28 -4 50 -10 50 -5 0 -10 23 -10 50 0 28 -4 50
-10 50 -5 0 -10 23 -10 50 0 28 -4 50 -10 50 -5 0 -10 18 -10 40 0 22 -4 40
-10 40 -5 0 -10 23 -10 50 0 28 -4 50 -10 50 -5 0 -10 18 -10 40 0 22 -4 40
-10 40 -5 0 -10 23 -10 50 0 28 -4 50 -10 50 -5 0 -10 21 -10 46 0 47 -16 74
-44 74 -12 0 -16 -11 -16 -50 0 -27 5 -50 10 -50 6 0 10 -22 10 -50 0 -27 5
-50 10 -50 6 0 10 -18 10 -40 0 -22 5 -40 10 -40 6 0 10 -27 10 -60 0 -33 -4
-60 -10 -60 -5 0 -10 7 -10 16 0 15 -23 44 -34 44 -3 0 -6 -9 -6 -20 0 -11 -4
-20 -10 -20 -5 0 -10 9 -10 20 0 11 -3 20 -6 20 -11 0 -34 -29 -34 -44 0 -9
-4 -16 -10 -16 -5 0 -10 9 -10 20 0 13 -7 20 -20 20 -20 0 -20 -7 -20 -290 0
-187 4 -290 10 -290 6 0 10 -83 10 -230 0 -223 -1 -230 -20 -230 -13 0 -20 7
-20 18 0 10 -9 24 -20 32 -21 15 -28 70 -10 70 6 0 10 9 10 20 0 11 5 20 10
20 6 0 10 23 10 50 0 28 -4 50 -10 50 -5 0 -10 -4 -10 -10 0 -5 -4 -10 -10
-10 -6 0 -10 37 -10 90 0 53 4 90 10 90 6 0 10 5 10 10 0 6 -9 10 -20 10 -16
0 -20 7 -20 30 0 17 -4 30 -10 30 -6 0 -10 37 -10 90 0 53 -4 90 -10 90 -6 0
-10 63 -10 170 0 107 -4 170 -10 170 -6 0 -10 30 -10 70 0 40 -4 70 -10 70 -6
0 -10 33 -10 80 0 47 -4 80 -10 80 -6 0 -10 -63 -10 -170 0 -107 4 -170 10
-170 6 0 10 -70 10 -190 0 -120 4 -190 10 -190 6 0 10 -63 10 -170 0 -107 4
-170 10 -170 6 0 10 -53 10 -140 0 -77 -3 -140 -6 -140 -18 0 -34 34 -34 74 0
25 -4 46 -10 46 -6 0 -10 50 -10 130 0 80 -4 130 -10 130 -6 0 -10 30 -10 70
0 40 -4 70 -10 70 -6 0 -10 53 -10 140 0 77 -3 140 -6 140 -3 0 -12 -6 -20
-14 -16 -17 -19 -66 -4 -66 6 0 10 -22 10 -50 0 -27 -4 -50 -10 -50 -5 0 -10
14 -10 30 0 23 -4 30 -20 30 -16 0 -20 -7 -20 -30 0 -16 5 -30 10 -30 6 0 10
-4 10 -10 0 -5 -9 -10 -20 -10 -13 0 -20 -7 -20 -20 0 -13 -7 -20 -20 -20 -12
0 -20 -7 -20 -16 0 -22 -32 -53 -38 -36 -6 19 -22 14 -22 -8 0 -13 -7 -20 -20
-20 -16 0 -20 -7 -20 -30 0 -23 4 -30 20 -30 11 0 20 5 20 10 0 6 5 10 10 10
6 0 10 -13 10 -30 0 -16 -4 -30 -10 -30 -5 0 -10 5 -10 10 0 6 -9 10 -20 10
-11 0 -20 -4 -20 -10 0 -5 -9 -10 -20 -10 -11 0 -20 -4 -20 -10 0 -5 5 -10 10
-10 6 0 10 -13 10 -30 0 -16 -4 -30 -10 -30 -5 0 -10 5 -10 10 0 6 -9 10 -20
10 -11 0 -20 -4 -20 -10 0 -5 -13 -10 -30 -10 -16 0 -30 -4 -30 -10 0 -5 9
-10 20 -10 13 0 20 -7 20 -20 0 -16 -7 -20 -30 -20 -30 0 -41 -15 -17 -23 7
-2 0 -15 -20 -34 -38 -36 -40 -43 -13 -43 11 0 20 -4 20 -10 0 -5 -12 -10 -26
-10 -41 0 -76 -51 -42 -62 9 -3 8 -9 -4 -21 -11 -12 -34 -17 -72 -17 -49 0
-56 -3 -56 -19 0 -11 -6 -21 -12 -24 -8 -2 -9 -8 -4 -13 5 -5 11 -4 13 4 3 6
18 12 34 12 27 0 29 -3 29 -39 0 -22 6 -42 13 -45 10 -5 10 -7 0 -12 -7 -3
-13 -13 -13 -23 0 -9 -9 -23 -20 -31 -11 -8 -20 -26 -20 -40 0 -14 -9 -32 -20
-40 -11 -8 -20 -22 -20 -32 0 -22 -26 -24 -46 -4 -10 10 -14 39 -14 100 0 51
-4 86 -10 86 -6 0 -10 37 -10 90 0 53 -4 90 -10 90 -6 0 -10 -100 -10 -280 0
-154 2 -280 5 -280 3 0 17 11 30 25 19 18 25 35 25 70 0 43 1 45 28 45 16 0
34 8 42 20 10 14 26 20 52 20 21 0 38 5 38 10 0 6 13 10 28 10 16 0 34 8 42
20 11 15 26 20 62 20 41 0 48 3 48 20 0 18 7 20 70 20 40 0 70 4 70 10 0 6
-18 10 -40 10 -22 0 -40 5 -40 10 0 6 23 10 50 10 43 0 50 -3 50 -20 0 -11 5
-20 10 -20 6 0 10 9 10 20 0 19 7 20 90 20 75 0 90 3 90 16 0 18 24 44 41 44
6 0 20 -10 31 -22 16 -19 21 -20 29 -8 8 11 12 12 16 3 2 -7 13 -13 23 -13 10
0 21 -6 24 -12 5 -10 7 -10 12 0 3 6 23 12 45 12 32 0 39 -3 39 -20 0 -13 7
-20 20 -20 11 0 20 -4 20 -10 0 -6 27 -10 60 -10 33 0 60 -4 60 -10 0 -5 13
-10 28 -10 16 0 34 -8 42 -20 8 -11 26 -20 40 -20 14 0 32 -9 40 -20 18 -26
30 -26 30 0 0 11 -4 20 -10 20 -5 0 -10 9 -10 20 0 11 5 20 10 20 6 0 10 -8
10 -18 0 -10 9 -24 20 -32 21 -15 28 -70 10 -70 -5 0 -10 -13 -10 -30 0 -16
-4 -30 -10 -30 -5 0 -10 -9 -10 -20 0 -11 -4 -20 -10 -20 -5 0 -10 -13 -10
-30 0 -16 -4 -30 -10 -30 -5 0 -10 -9 -10 -20 0 -11 -4 -20 -10 -20 -5 0 -10
-9 -10 -20 0 -11 -4 -20 -10 -20 -5 0 -10 -13 -10 -30 0 -16 -4 -30 -10 -30
-5 0 -10 -18 -10 -40 0 -22 -4 -40 -10 -40 -5 0 -10 -7 -10 -15 0 -9 -45 -60
-100 -115 -55 -55 -100 -104 -100 -110 0 -16 -88 -100 -105 -100 -8 0 -15 -7
-15 -15 0 -8 -74 -89 -165 -180 -150 -151 -168 -165 -200 -165 -19 0 -35 -4
-35 -10 0 -5 -13 -10 -30 -10 -16 0 -30 -4 -30 -10 0 -5 -11 -10 -25 -10 -27
0 -75 -40 -75 -62 0 -8 -9 -20 -20 -28 -11 -8 -20 -22 -20 -32 0 -10 -4 -18
-10 -18 -5 0 -10 -7 -10 -16 0 -9 -13 -29 -30 -44 -16 -15 -30 -33 -30 -40 0
-29 -29 -40 -104 -40 -44 0 -76 -4 -76 -10 0 -5 -7 -10 -16 -10 -45 0 -44 13
-44 -737 0 -765 4 -832 54 -1017 79 -289 246 -552 468 -738 56 -47 74 -58 76
-45 5 25 42 22 42 -3 0 -12 -7 -20 -17 -20 -15 0 -15 -2 -4 -9 16 -10 61 29
61 54 0 8 5 15 10 15 6 0 10 -4 10 -10 0 -5 5 -10 10 -10 6 0 10 9 10 20 0 13
7 20 18 20 10 0 24 9 32 20 8 11 22 20 32 20 10 0 18 5 18 10 0 6 9 10 20 10
22 0 27 16 8 22 -21 7 38 58 67 58 18 0 25 -5 25 -20 0 -11 3 -20 6 -20 11 0
34 29 34 44 0 21 27 20 48 -1 12 -12 13 -18 4 -21 -6 -2 -12 -12 -12 -23 0
-12 -7 -19 -20 -19 -11 0 -20 -7 -20 -16 0 -8 -22 -37 -50 -64 -27 -27 -50
-54 -50 -60 0 -6 -23 -34 -51 -61 -33 -32 -49 -55 -45 -65 14 -37 283 -138
457 -171 89 -17 241 -18 3169 -18 l3075 0 105 23 c545 120 958 485 1129 997
78 233 74 162 78 1373 3 748 1 1082 -7 1082 -5 0 -10 9 -10 20 0 13 -7 20 -20
20 -13 0 -20 7 -20 20 0 11 -4 20 -10 20 -5 0 -10 -4 -10 -10 0 -5 -4 -10 -10
-10 -6 0 -10 37 -10 90 0 53 -4 90 -10 90 -5 0 -10 -7 -10 -16 0 -15 -23 -44
-34 -44 -3 0 -6 23 -6 50 0 43 3 50 20 50 11 0 20 -4 20 -10 0 -5 13 -10 29
-10 16 0 32 -6 35 -12 5 -10 7 -10 12 0 3 6 14 12 25 12 19 0 19 16 19 670 0
663 0 670 -20 670 -17 0 -20 -7 -20 -39 0 -22 5 -41 13 -44 6 -2 9 -8 5 -12
-5 -5 -16 2 -27 13 -19 23 -51 30 -51 12 0 -5 -9 -10 -20 -10 -11 0 -20 -4
-20 -10 0 -5 9 -10 20 -10 11 0 20 -4 20 -10 0 -6 -33 -10 -80 -10 -47 0 -80
-4 -80 -10 0 -5 5 -10 10 -10 6 0 10 -4 10 -10 0 -19 -52 -10 -71 11 l-19 22
-29 -32 c-30 -32 -76 -42 -83 -19 -7 21 -38 -17 -38 -46 0 -14 -4 -26 -10 -26
-5 0 -10 -13 -10 -30 0 -16 -4 -30 -10 -30 -6 0 -10 -27 -10 -60 0 -33 4 -60
10 -60 6 0 10 -13 10 -30 0 -16 5 -30 10 -30 6 0 10 -18 10 -40 l0 -40 -66 0
c-75 0 -107 -18 -80 -45 8 -8 22 -15 30 -15 9 0 16 -4 16 -10 0 -5 9 -10 20
-10 11 0 20 -4 20 -10 0 -5 8 -10 18 -10 10 0 24 -9 32 -20 8 -11 22 -20 32
-20 10 0 18 -4 18 -10 0 -5 9 -10 20 -10 11 0 20 -4 20 -10 0 -5 9 -10 20 -10
11 0 20 -4 20 -10 0 -5 14 -10 30 -10 23 0 30 -4 30 -20 0 -15 7 -20 26 -20
14 0 32 -6 40 -14 16 -17 19 -66 4 -66 -6 0 -10 -27 -10 -60 l0 -60 -130 0
c-80 0 -130 4 -130 10 0 6 -9 10 -20 10 -11 0 -20 5 -20 10 0 6 -13 10 -30 10
-16 0 -30 5 -30 10 0 6 -13 10 -30 10 -16 0 -30 5 -30 10 0 6 -22 10 -50 10
-27 0 -50 5 -50 10 0 6 -22 10 -50 10 -27 0 -50 5 -50 10 0 6 -13 10 -30 10
-16 0 -30 5 -30 10 0 6 -9 10 -20 10 -11 0 -20 5 -20 10 0 6 -9 10 -20 10 -11
0 -20 5 -20 10 0 6 -18 10 -40 10 -22 0 -40 5 -40 10 0 6 -18 10 -40 10 -22 0
-40 5 -40 10 0 6 -13 10 -30 10 -16 0 -30 5 -30 10 0 6 -18 10 -40 10 -22 0
-40 5 -40 10 0 6 -18 10 -40 10 -22 0 -40 5 -40 10 0 6 -18 10 -40 10 -22 0
-40 5 -40 10 0 6 -18 10 -40 10 l-40 0 0 60 c0 33 4 60 10 60 6 0 10 23 10 50
0 28 5 50 10 50 6 0 10 16 10 36 0 35 -18 64 -40 64 -7 0 -25 14 -40 30 l-28
30 -366 0 c-359 0 -366 0 -366 -20 0 -26 -12 -26 -30 0 -8 12 -26 20 -42 20
-15 0 -28 5 -28 10 0 6 -9 10 -20 10 -11 0 -20 5 -20 10 0 6 -9 10 -20 10 -11
0 -20 5 -20 10 0 6 -9 10 -20 10 -11 0 -20 5 -20 10 0 6 -13 10 -28 10 -16 0
-34 8 -42 20 -8 12 -26 20 -42 20 -15 0 -28 5 -28 10 0 6 -9 10 -20 10 -11 0
-20 5 -20 10 0 6 -13 10 -30 10 -16 0 -30 5 -30 10 0 6 -22 10 -50 10 -27 0
-50 5 -50 10 0 6 -9 10 -19 10 -11 0 -21 6 -23 12 -3 9 -9 8 -21 -4 -13 -13
-17 -35 -17 -92 0 -44 -4 -76 -10 -76 -6 0 -10 -27 -10 -60 0 -33 -4 -60 -10
-60 -5 0 -10 -13 -10 -30 0 -16 -4 -30 -10 -30 -5 0 -10 -18 -10 -40 0 -22 -4
-40 -10 -40 -5 0 -10 -9 -10 -20 0 -11 -4 -20 -10 -20 -5 0 -10 -13 -10 -28 0
-16 -8 -34 -20 -42 -12 -8 -20 -26 -20 -42 0 -15 -4 -28 -10 -28 -5 0 -10 -13
-10 -30 0 -16 -4 -30 -10 -30 -5 0 -10 -13 -10 -30 0 -16 -4 -30 -10 -30 -5 0
-10 -18 -10 -40 0 -22 -4 -40 -10 -40 -5 0 -10 -9 -10 -19 0 -11 -6 -22 -12
-24 -10 -4 -9 -8 2 -17 11 -9 12 -13 3 -17 -7 -2 -13 -13 -13 -24 0 -10 -4
-19 -10 -19 -6 0 -10 -27 -10 -60 0 -33 -4 -60 -10 -60 -5 0 -10 -13 -10 -30
0 -16 -4 -30 -10 -30 -5 0 -10 -9 -10 -20 0 -11 -4 -20 -10 -20 -5 0 -10 -9
-10 -20 0 -11 -4 -20 -10 -20 -5 0 -10 -13 -10 -30 0 -16 -4 -30 -10 -30 -5 0
-10 -13 -10 -28 0 -16 -8 -34 -20 -42 -29 -21 -27 -74 5 -105 13 -14 31 -25
40 -25 12 0 15 -15 15 -88 0 -76 -3 -89 -20 -102 -11 -8 -20 -21 -20 -28 0 -8
-13 -27 -30 -42 -16 -15 -30 -33 -30 -39 0 -15 -46 -61 -61 -61 -6 0 -24 -13
-39 -30 -15 -16 -34 -30 -42 -30 -7 0 -20 -9 -28 -20 -8 -11 -22 -20 -32 -20
-10 0 -18 -4 -18 -10 0 -5 -9 -10 -20 -10 -11 0 -20 -4 -20 -10 0 -5 -9 -10
-20 -10 -11 0 -20 -4 -20 -10 0 -5 -13 -10 -30 -10 -16 0 -30 -4 -30 -10 0 -5
-22 -10 -50 -10 -27 0 -50 -4 -50 -10 0 -5 -13 -10 -30 -10 -16 0 -30 -4 -30
-10 0 -6 -53 -10 -140 -10 -87 0 -140 4 -140 10 0 6 -13 10 -30 10 -16 0 -30
5 -30 10 0 6 -18 10 -40 10 -22 0 -40 5 -40 10 0 6 -9 10 -20 10 -13 0 -20 7
-20 20 0 16 -7 20 -30 20 -23 0 -30 4 -30 20 0 13 -7 20 -20 20 -22 0 -27 16
-7 23 8 3 5 11 -11 24 -26 24 -28 39 -8 59 17 16 46 19 46 4 0 -5 9 -10 20
-10 11 0 20 5 20 10 0 6 23 10 50 10 28 0 50 5 50 10 0 6 29 10 66 10 76 0 94
12 94 64 0 28 -4 36 -18 36 -10 0 -24 9 -32 20 -13 18 -26 20 -132 20 -72 0
-118 -4 -118 -10 0 -5 -9 -10 -19 -10 -11 0 -22 -6 -25 -12 -5 -10 -7 -10 -12
0 -3 6 -14 12 -24 12 -10 0 -21 6 -23 13 -4 9 -8 8 -16 -3 -8 -12 -13 -11 -29
8 -11 12 -26 22 -33 22 -8 0 -21 9 -29 20 -8 11 -21 20 -28 20 -7 0 -31 18
-52 40 -21 22 -46 40 -54 40 -9 0 -16 5 -16 10 0 6 -7 10 -15 10 -20 0 -65 45
-65 65 0 8 -8 15 -18 15 -10 0 -24 9 -32 20 -8 11 -22 20 -32 20 -10 0 -18 5
-18 10 0 6 -7 10 -16 10 -20 0 -44 24 -44 44 0 9 -8 16 -20 16 -13 0 -20 7
-20 20 0 13 -7 20 -20 20 -13 0 -20 7 -20 20 0 13 -7 20 -18 20 -10 0 -24 9
-32 20 -8 11 -20 20 -28 20 -18 0 -42 25 -42 44 0 9 -8 16 -18 16 -10 0 -24 9
-32 20 -8 11 -20 20 -28 20 -16 0 -42 24 -42 40 0 14 -46 60 -60 60 -21 0 -80
69 -80 95 0 18 -5 25 -20 25 -13 0 -20 7 -20 20 0 11 -4 20 -10 20 -5 0 -10 9
-10 19 0 11 -6 22 -12 24 -10 4 -10 8 1 15 12 9 12 13 -2 26 -8 9 -21 16 -27
16 -19 0 -40 27 -40 50 0 12 -13 35 -30 50 -16 15 -30 33 -30 40 0 7 -13 25
-30 40 -16 15 -30 35 -30 44 0 9 -4 16 -10 16 -5 0 -10 8 -10 18 0 10 -9 24
-20 32 -11 8 -20 22 -20 32 0 10 -4 18 -10 18 -5 0 -10 8 -10 18 0 10 -9 24
-20 32 -14 10 -20 26 -20 50 0 24 -6 40 -20 50 -11 8 -20 22 -20 32 0 10 -4
18 -10 18 -5 0 -10 14 -10 30 0 17 -4 30 -10 30 -5 0 -10 13 -10 28 0 16 -8
34 -20 42 -11 8 -20 22 -20 32 0 10 -4 18 -10 18 -5 0 -10 9 -10 20 0 11 -4
20 -10 20 -5 0 -10 14 -10 30 0 17 -4 30 -10 30 -5 0 -10 14 -10 30 0 17 -4
30 -10 30 -5 0 -10 9 -10 20 0 11 -4 20 -10 20 -5 0 -10 18 -10 40 0 22 -4 40
-10 40 -5 0 -10 14 -10 30 0 17 -4 30 -10 30 -5 0 -10 23 -10 50 0 28 -4 50
-10 50 -5 0 -10 14 -10 30 0 17 -4 30 -10 30 -6 0 -10 30 -10 70 0 40 -4 70
-10 70 -6 0 -10 27 -10 60 0 33 4 60 10 60 6 0 10 -13 10 -30 0 -16 5 -30 10
-30 6 0 10 -13 10 -30 0 -16 5 -30 10 -30 6 0 10 -9 10 -20 0 -11 -4 -20 -10
-20 -5 0 -10 -4 -10 -10 0 -5 9 -10 20 -10 13 0 20 -7 20 -20 0 -11 -4 -20
-10 -20 -15 0 -12 -70 4 -86 23 -22 26 -17 26 36 0 28 5 50 10 50 6 0 10 -9
10 -20 0 -11 5 -20 10 -20 6 0 10 -9 10 -20 0 -11 5 -20 10 -20 6 0 10 18 10
40 0 33 3 40 20 40 13 0 20 7 20 20 0 13 -7 20 -20 20 -24 0 -25 6 -6 26 8 8
30 14 48 14 22 0 39 7 48 20 8 11 22 20 32 20 10 0 18 5 18 10 0 6 9 10 20 10
11 0 20 5 20 10 0 6 18 10 40 10 22 0 40 5 40 10 0 6 63 10 170 10 107 0 170
4 170 10 0 6 18 10 40 10 22 0 40 3 40 6 0 14 -31 34 -54 34 -19 0 -26 5 -26
20 0 13 -7 20 -20 20 -11 0 -20 5 -20 10 0 6 -47 10 -120 10 -73 0 -120 4
-120 10 0 6 -9 10 -20 10 -11 0 -20 -4 -20 -10 0 -5 -18 -10 -40 -10 -22 0
-40 5 -40 10 0 6 -13 10 -30 10 -16 0 -30 5 -30 10 0 22 -53 9 -80 -20 -15
-16 -33 -30 -40 -30 -7 0 -25 -13 -40 -30 -35 -37 -40 -37 -40 0 0 17 -4 30
-10 30 -5 0 -10 -9 -10 -20 0 -11 -4 -20 -10 -20 -5 0 -10 18 -10 40 0 22 -4
40 -10 40 -5 0 -10 18 -10 40 0 22 5 40 10 40 6 0 10 40 10 100 0 60 4 100 10
100 6 0 10 17 10 38 0 26 6 42 20 52 11 8 20 22 20 32 0 10 5 18 10 18 6 0 10
14 10 30 0 23 4 30 20 30 13 0 20 7 20 18 0 10 9 24 20 32 16 11 20 26 20 68
0 51 2 56 50 102 50 49 61 73 38 84 -10 5 -10 7 0 12 6 3 12 19 12 35 0 22 5
29 20 29 11 0 20 5 20 10 0 6 9 10 20 10 11 0 20 5 20 10 0 6 -4 10 -10 10 -5
0 -10 5 -10 10 0 6 9 10 20 10 11 0 20 5 20 10 0 6 -13 10 -30 10 -16 0 -30 5
-30 10 0 6 18 10 40 10 22 0 40 5 40 10 0 6 9 10 20 10 17 0 20 7 20 50 l0 50
35 0 c43 0 85 37 85 75 0 16 6 25 16 25 23 0 44 25 44 54 0 19 5 26 20 26 11
0 20 5 20 10 0 6 -4 10 -10 10 -5 0 -10 5 -10 10 0 6 16 10 36 10 27 0 43 7
64 30 17 18 38 30 54 30 14 0 26 5 26 10 0 6 21 10 46 10 44 0 74 16 74 40 0
20 28 40 54 40 14 0 26 5 26 10 0 6 9 10 20 10 11 0 20 5 20 10 0 6 18 10 40
10 22 0 40 5 40 10 0 6 17 10 38 10 26 0 42 -6 52 -20 8 -12 26 -20 42 -20 21
0 28 -5 28 -20 0 -16 7 -20 30 -20 17 0 30 -4 30 -10 0 -5 9 -10 20 -10 13 0
20 7 20 20 0 13 -7 20 -20 20 -11 0 -20 5 -20 10 0 6 14 10 30 10 17 0 30 5
30 10 0 6 -9 10 -20 10 -11 0 -20 5 -20 10 0 6 14 10 30 10 17 0 30 5 30 10 0
6 18 10 40 10 22 0 40 -4 40 -10 0 -5 14 -10 30 -10 23 0 30 -4 30 -20 0 -16
7 -20 30 -20 23 0 30 4 30 20 0 19 7 20 100 20 60 0 100 -4 100 -10 0 -14 37
-12 44 3 5 10 7 10 12 0 3 -7 14 -13 25 -13 10 0 19 -4 19 -10 0 -6 30 -10 70
-10 40 0 70 -4 70 -10 0 -5 9 -10 20 -10 11 0 20 -4 20 -10 0 -5 8 -10 18 -10
10 0 24 -9 32 -20 8 -11 20 -20 28 -20 16 0 42 -24 42 -40 0 -6 18 -29 40 -50
22 -21 40 -46 40 -54 0 -9 5 -16 10 -16 6 0 10 -7 10 -16 0 -8 18 -33 40 -54
22 -21 40 -44 40 -50 0 -7 14 -25 30 -40 17 -15 30 -35 30 -44 0 -9 5 -16 10
-16 6 0 10 -7 10 -15 0 -17 124 -145 140 -145 15 0 160 -147 160 -163 0 -7 9
-19 20 -27 11 -8 20 -22 20 -32 0 -10 5 -18 10 -18 6 0 10 -9 10 -20 0 -11 5
-20 10 -20 6 0 10 -13 10 -30 0 -16 5 -30 10 -30 6 0 10 -9 10 -20 0 -11 5
-20 10 -20 6 0 10 -9 10 -20 0 -11 5 -20 10 -20 6 0 10 -9 10 -20 0 -11 5 -20
10 -20 6 0 10 -13 10 -30 0 -16 5 -30 10 -30 6 0 10 -9 10 -20 0 -11 5 -20 10
-20 6 0 10 -9 10 -20 0 -11 5 -20 10 -20 6 0 10 -9 10 -20 0 -11 5 -20 10 -20
6 0 10 -18 10 -40 0 -22 5 -40 10 -40 6 0 10 9 10 20 0 23 25 27 46 6 8 -8 14
-26 14 -40 0 -14 5 -26 10 -26 6 0 10 -9 10 -20 0 -13 7 -20 20 -20 11 0 20
-4 20 -10 0 -5 7 -10 15 -10 9 0 27 -11 40 -25 14 -13 25 -31 25 -40 0 -8 5
-15 10 -15 6 0 10 -9 10 -20 0 -11 5 -20 10 -20 6 0 10 -9 10 -20 0 -11 5 -20
10 -20 6 0 10 -13 10 -30 0 -23 4 -30 20 -30 22 0 27 15 8 23 -10 4 -9 8 2 17
11 9 12 13 3 17 -9 3 -13 30 -13 83 0 53 -4 80 -12 84 -10 5 -10 7 0 12 14 7
17 64 2 64 -5 0 -10 14 -10 30 0 17 -4 30 -10 30 -6 0 -10 30 -10 70 0 73 6
83 30 50 8 -11 22 -20 32 -20 11 0 18 7 18 20 0 11 -4 20 -10 20 -5 0 -10 14
-10 30 0 23 4 30 20 30 16 0 20 7 20 30 0 17 -4 30 -10 30 -6 0 -10 27 -10 60
0 33 -4 60 -10 60 -6 0 -10 30 -10 70 0 40 -4 70 -10 70 -5 0 -10 14 -10 30 0
17 -4 30 -10 30 -5 0 -10 18 -10 40 0 22 -4 40 -10 40 -5 0 -10 23 -10 50 0
28 -4 50 -10 50 -5 0 -10 14 -10 30 0 17 -4 30 -10 30 -6 0 -10 37 -10 90 0
53 -4 90 -10 90 -6 0 -10 43 -10 110 0 67 -4 110 -10 110 -5 0 -10 9 -10 20 0
11 -4 20 -10 20 -6 0 -10 47 -10 120 0 73 -4 120 -10 120 -5 0 -10 9 -10 20 0
11 -4 20 -10 20 -5 0 -10 9 -10 20 0 11 -4 20 -10 20 -6 0 -10 43 -10 110 0
67 -4 110 -10 110 -6 0 -10 53 -10 140 0 87 4 140 10 140 6 0 10 70 10 190 0
120 4 190 10 190 6 0 10 9 10 20 0 11 5 20 10 20 6 0 10 14 10 30 0 23 -4 30
-20 30 -13 0 -20 7 -20 20 0 13 7 20 20 20 13 0 20 7 20 20 0 13 -7 20 -20 20
-16 0 -20 7 -20 30 0 28 2 30 40 30 22 0 40 5 40 10 0 6 -40 10 -100 10 -60 0
-100 -4 -100 -10 0 -5 9 -10 20 -10 17 0 20 -7 20 -40 0 -22 -4 -40 -10 -40
-5 0 -10 -13 -10 -29 0 -16 -6 -32 -12 -35 -10 -5 -10 -7 0 -12 6 -3 12 -14
12 -25 0 -10 5 -19 10 -19 6 0 10 -80 10 -220 0 -140 4 -220 10 -220 15 0 12
-57 -2 -63 -10 -4 -9 -8 2 -16 13 -10 13 -12 0 -22 -11 -8 -12 -12 -2 -16 6
-2 12 -13 12 -23 0 -10 -6 -21 -12 -24 -10 -5 -10 -7 0 -12 20 -10 15 -44 -8
-44 -13 0 -20 7 -20 19 0 11 -6 22 -12 24 -10 4 -9 8 2 16 8 5 11 14 6 18 -5
4 -11 2 -13 -4 -7 -20 -23 -15 -23 7 0 13 7 20 20 20 11 0 20 5 20 10 0 6 -9
10 -20 10 -11 0 -20 5 -20 10 0 6 5 10 10 10 6 0 10 5 10 10 0 6 -16 10 -36
10 -27 0 -43 7 -64 30 -15 17 -34 30 -42 30 -7 0 -20 9 -28 20 -9 13 -26 20
-48 20 -18 0 -40 6 -48 14 -16 17 -19 66 -4 66 6 0 10 14 10 30 0 17 5 30 10
30 6 0 10 9 10 20 0 11 5 20 10 20 6 0 10 9 10 19 0 11 6 22 13 25 10 5 10 7
0 12 -8 3 -13 25 -13 55 0 42 -3 49 -20 49 -11 0 -20 -4 -20 -10 0 -5 -9 -10
-19 -10 -11 0 -21 -6 -23 -12 -6 -17 -38 14 -38 36 0 12 10 16 40 16 30 0 40
4 40 16 0 22 32 53 38 36 2 -6 12 -12 23 -12 22 0 27 35 7 43 -7 2 -10 8 -6
12 12 12 38 -22 38 -49 0 -14 5 -26 10 -26 6 0 10 8 10 18 0 10 9 24 20 32 11
8 20 18 20 22 0 4 -9 8 -20 8 -11 0 -20 5 -20 10 0 6 18 10 40 10 22 0 40 5
40 10 0 6 -33 10 -78 10 -66 0 -80 3 -92 20 -8 12 -26 20 -42 20 -15 0 -28 5
-28 10 0 6 -9 10 -20 10 -13 0 -20 7 -20 20 0 19 7 20 160 20 100 0 160 4 160
10 0 6 -9 10 -20 10 -11 0 -20 5 -20 10 0 6 -9 10 -20 10 -11 0 -20 -4 -20
-10 0 -5 -9 -10 -20 -10 -11 0 -20 5 -20 10 0 6 -27 10 -60 10 -33 0 -60 -4
-60 -10 0 -6 -137 -10 -390 -10 -253 0 -390 4 -390 10 0 6 -18 10 -40 10 -22
0 -40 -4 -40 -10 0 -5 -9 -10 -20 -10 -11 0 -20 5 -20 10 0 6 -18 10 -40 10
-22 0 -40 -4 -40 -10 0 -14 -37 -12 -44 3 -5 10 -7 10 -12 0 -7 -15 -44 -17
-44 -3 0 6 -13 10 -30 10 -16 0 -30 -4 -30 -10 0 -6 -53 -10 -140 -10 -87 0
-140 4 -140 10 0 6 -30 10 -70 10 -40 0 -70 -4 -70 -10z m1580 -370 c0 -18 -7
-20 -70 -20 -40 0 -70 4 -70 10 0 6 9 10 20 10 11 0 20 5 20 10 0 6 23 10 50
10 43 0 50 -3 50 -20z m-2500 -90 c0 -5 -9 -10 -20 -10 -11 0 -20 5 -20 10 0
6 9 10 20 10 11 0 20 -4 20 -10z m320 -1240 c0 -5 -4 -10 -10 -10 -5 0 -10 5
-10 10 0 6 5 10 10 10 6 0 10 -4 10 -10z m2720 -750 c0 -73 -4 -120 -10 -120
-5 0 -10 23 -10 50 0 28 -4 50 -10 50 -6 0 -10 30 -10 70 0 63 2 70 20 70 19
0 20 -7 20 -120z m-4840 -750 c0 -5 -4 -10 -10 -10 -5 0 -10 5 -10 10 0 6 5
10 10 10 6 0 10 -4 10 -10z m-440 -449 c0 -38 4 -61 13 -64 6 -2 9 -8 5 -12
-4 -4 -14 0 -23 8 -17 18 -22 127 -5 127 6 0 10 -26 10 -59z m-80 -41 c0 -13
-7 -20 -20 -20 -23 0 -25 5 -7 25 17 20 27 18 27 -5z m2060 -170 c0 -27 -4
-50 -10 -50 -5 0 -10 23 -10 50 0 28 5 50 10 50 6 0 10 -22 10 -50z m6020 0
c0 -5 -13 -10 -30 -10 -16 0 -30 5 -30 10 0 6 14 10 30 10 17 0 30 -4 30 -10z
m0 -50 c0 -24 -6 -25 -26 -6 -19 20 -18 26 6 26 13 0 20 -7 20 -20z m-8320
-60 c0 -11 -4 -20 -10 -20 -5 0 -10 9 -10 20 0 11 5 20 10 20 6 0 10 -9 10
-20z m-160 -210 c0 -5 14 -10 30 -10 36 0 37 -4 5 -35 -31 -32 -35 -31 -35 5
0 17 -4 30 -10 30 -5 0 -10 5 -10 10 0 6 5 10 10 10 6 0 10 -4 10 -10z m8340
0 c0 -5 -4 -10 -10 -10 -5 0 -10 5 -10 10 0 6 5 10 10 10 6 0 10 -4 10 -10z
m-180 -20 c0 -5 14 -10 30 -10 17 0 30 5 30 10 0 6 14 10 30 10 17 0 30 -4 30
-10 0 -5 9 -10 20 -10 11 0 20 -4 20 -10 0 -15 -157 -13 -163 3 -2 6 -8 9 -12
5 -18 -17 25 -38 79 -38 31 0 56 -4 56 -10 0 -15 -117 -13 -124 3 -5 10 -7 10
-12 0 -12 -26 -24 -12 -24 27 0 33 3 40 20 40 11 0 20 -4 20 -10z m200 -20 c0
-5 -4 -10 -10 -10 -5 0 -10 5 -10 10 0 6 5 10 10 10 6 0 10 -4 10 -10z m-7880
-80 c0 -6 -27 -10 -60 -10 -33 0 -60 4 -60 10 0 6 27 10 60 10 33 0 60 -4 60
-10z m6280 -206 c0 -20 -24 -44 -44 -44 -19 0 -21 25 -3 45 16 19 47 19 47 -1z
m-140 -114 c0 -5 -4 -10 -10 -10 -5 0 -10 5 -10 10 0 6 5 10 10 10 6 0 10 -4
10 -10z m1720 -290 c0 -22 -4 -40 -10 -40 -5 0 -10 14 -10 30 0 17 -4 30 -10
30 -5 0 -10 -4 -10 -10 0 -5 -9 -10 -20 -10 -13 0 -20 7 -20 20 0 17 7 20 40
20 l40 0 0 -40z m-5060 10 c0 -5 -4 -10 -10 -10 -5 0 -10 5 -10 10 0 6 5 10
10 10 6 0 10 -4 10 -10z m5100 -80 c0 -5 -4 -10 -10 -10 -5 0 -10 5 -10 10 0
6 5 10 10 10 6 0 10 -4 10 -10z m-4314 -584 c19 -20 18 -26 -6 -26 -13 0 -20
7 -20 20 0 24 6 25 26 6z m3394 -696 c0 -5 -4 -10 -10 -10 -5 0 -10 5 -10 10
0 6 5 10 10 10 6 0 10 -4 10 -10z m580 -180 c0 -5 -4 -10 -10 -10 -5 0 -10 5
-10 10 0 6 5 10 10 10 6 0 10 -4 10 -10z m-680 -560 c0 -5 -4 -10 -10 -10 -5
0 -10 5 -10 10 0 6 5 10 10 10 6 0 10 -4 10 -10z m380 -160 c0 -5 -4 -10 -10
-10 -5 0 -10 5 -10 10 0 6 5 10 10 10 6 0 10 -4 10 -10z m-6220 -220 c0 -16
-4 -30 -10 -30 -5 0 -10 -7 -10 -16 0 -9 -13 -29 -30 -44 -16 -15 -30 -34 -30
-42 0 -7 -9 -20 -20 -28 -11 -8 -20 -21 -20 -30 0 -9 -9 -22 -20 -30 -11 -8
-20 -21 -20 -30 0 -9 -9 -22 -20 -30 -11 -8 -20 -21 -20 -28 0 -7 -18 -31 -40
-52 -22 -21 -40 -45 -40 -52 0 -7 -9 -20 -20 -28 -11 -8 -20 -20 -20 -27 0
-19 -86 -103 -105 -103 -8 0 -15 -7 -15 -16 0 -23 -25 -44 -54 -44 -19 0 -26
-5 -26 -20 0 -27 -7 -25 -40 10 -31 33 -80 42 -80 14 0 -20 24 -44 44 -44 19
0 21 16 4 23 -7 2 -10 8 -6 12 13 13 38 -23 38 -55 0 -32 -45 -89 -58 -75 -4
4 -1 10 6 12 6 3 12 18 12 34 0 22 -5 29 -20 29 -12 0 -20 7 -20 16 0 9 -10
26 -22 37 -16 13 -19 21 -10 24 12 5 18 43 6 43 -3 0 -23 -18 -44 -40 -21 -22
-45 -40 -53 -40 -9 0 -17 -6 -20 -12 -2 -7 -8 -10 -12 -6 -4 4 6 21 24 37 17
16 31 34 31 40 0 7 36 47 80 91 44 44 80 84 80 90 0 6 23 33 50 60 28 27 50
56 50 64 0 9 9 16 20 16 12 0 20 7 20 16 0 19 24 44 42 44 8 0 20 9 28 20 8
11 26 20 40 20 14 0 32 9 40 20 8 11 22 20 32 20 10 0 18 5 18 10 0 6 7 10 16
10 9 0 29 14 44 30 15 17 34 30 42 30 7 1 29 19 48 40 24 27 44 39 63 40 23 0
27 -4 27 -30z m-700 -660 c0 -5 -4 -10 -10 -10 -5 0 -10 5 -10 10 0 6 5 10 10
10 6 0 10 -4 10 -10z m-100 -38 c0 -4 -9 -14 -20 -22 -11 -8 -20 -22 -20 -32
0 -10 -7 -18 -16 -18 -9 0 -25 -10 -35 -22 -11 -11 -22 -18 -25 -15 -4 3 12
24 35 46 22 22 41 47 41 55 0 9 8 16 20 16 11 0 20 -4 20 -8z m880 -82 c0 -63
-2 -70 -20 -70 -13 0 -20 7 -20 20 0 11 5 20 10 20 6 0 10 23 10 50 0 28 5 50
10 50 6 0 10 -30 10 -70z m-800 40 c0 -5 -4 -10 -10 -10 -5 0 -10 5 -10 10 0
6 5 10 10 10 6 0 10 -4 10 -10z m-20 -56 c0 -7 -27 -34 -34 -34 -3 0 -6 9 -6
20 0 13 7 20 20 20 11 0 20 -3 20 -6z m88 -11 c12 -12 13 -18 4 -21 -6 -2 -12
-12 -12 -23 0 -12 -7 -19 -20 -19 -17 0 -20 7 -20 40 0 44 18 53 48 23z"/>
<path d="M1240 930 c0 -5 5 -10 10 -10 6 0 10 5 10 10 0 6 -4 10 -10 10 -5 0
-10 -4 -10 -10z"/>
<path d="M1120 894 c0 -10 31 -36 37 -31 3 3 -2 13 -10 22 -16 15 -27 19 -27
9z"/>
<path d="M1080 870 c0 -5 5 -10 10 -10 6 0 10 5 10 10 0 6 -4 10 -10 10 -5 0
-10 -4 -10 -10z"/>
<path d="M1240 850 c0 -5 9 -10 20 -10 11 0 20 5 20 10 0 6 -9 10 -20 10 -11
0 -20 -4 -20 -10z"/>
<path d="M1120 830 c0 -5 5 -10 10 -10 6 0 10 5 10 10 0 6 -4 10 -10 10 -5 0
-10 -4 -10 -10z"/>
<path d="M6040 8791 c0 -8 122 -11 390 -11 253 0 390 -4 390 -10 0 -6 90 -10
250 -10 l250 0 0 -30 c0 -16 5 -30 10 -30 6 0 10 -9 10 -20 0 -13 7 -20 20
-20 11 0 20 5 20 10 0 18 55 11 70 -10 8 -11 25 -20 38 -20 31 0 61 -28 42
-40 -11 -7 -10 -11 3 -24 8 -9 23 -16 31 -16 11 0 16 -9 16 -30 0 -16 5 -30
10 -30 6 0 10 -22 10 -50 l0 -50 -40 0 c-22 0 -40 -4 -40 -10 0 -5 -13 -10
-30 -10 -16 0 -30 -4 -30 -10 0 -6 -49 -10 -126 -10 -130 0 -154 -7 -154 -44
0 -20 56 -22 63 -3 3 8 11 5 24 -10 20 -23 73 -32 73 -13 0 6 9 10 20 10 11 0
20 -4 20 -10 0 -5 18 -10 40 -10 22 0 40 5 40 10 0 6 27 10 60 10 l60 0 0 -30
c0 -16 5 -30 10 -30 15 0 13 -177 -2 -183 -10 -4 -9 -8 2 -17 11 -9 12 -13 3
-17 -24 -9 -13 -23 17 -23 l30 0 0 -100 c0 -60 -4 -100 -10 -100 -6 0 -10 -33
-10 -80 0 -47 4 -80 10 -80 6 0 10 -4 10 -10 0 -6 -117 -10 -330 -10 -213 0
-330 -4 -330 -10 0 -6 109 -10 306 -10 251 0 308 -3 320 -14 11 -12 14 -51 14
-190 0 -111 4 -176 10 -176 6 0 10 40 10 100 0 60 4 100 10 100 6 0 10 37 10
90 l0 90 310 0 c200 0 310 4 310 10 0 6 87 10 240 10 153 0 240 4 240 10 0 6
-9 10 -19 10 -11 0 -22 6 -25 13 -5 10 -7 10 -12 0 -4 -10 -79 -13 -325 -13
-206 0 -319 -4 -319 -10 0 -6 -73 -10 -200 -10 l-200 0 0 120 c0 73 4 120 10
120 6 0 10 33 10 80 l0 80 40 0 c22 0 40 5 40 10 0 6 -18 10 -40 10 -33 0 -40
3 -40 20 0 11 5 20 10 20 6 0 10 33 10 80 0 47 4 80 10 80 6 0 10 80 10 220 0
140 4 220 10 220 6 0 10 -18 10 -39 0 -22 6 -42 13 -45 10 -5 10 -7 0 -12 -7
-3 -13 -23 -13 -45 0 -32 3 -39 20 -39 13 0 20 -7 20 -20 0 -16 7 -20 30 -20
17 0 30 -4 30 -10 0 -5 9 -10 20 -10 23 0 27 -25 6 -46 -17 -16 -46 -19 -46
-4 0 6 -9 10 -20 10 -11 0 -20 -4 -20 -10 0 -5 -9 -10 -20 -10 -17 0 -20 -7
-20 -50 0 -27 5 -50 10 -50 6 0 10 7 10 16 0 19 24 44 42 44 8 0 20 -9 28 -20
10 -14 26 -20 52 -20 21 0 38 -4 38 -10 0 -6 40 -10 99 -10 70 0 101 -4 105
-12 5 -10 7 -10 12 0 3 6 18 12 34 12 16 0 31 -6 34 -12 5 -10 7 -10 12 0 7
14 44 16 44 2 0 -5 9 -10 20 -10 11 0 20 5 20 10 0 14 77 13 82 -1 2 -6 17 -9
33 -7 l30 3 -55 59 c-167 178 -385 315 -629 396 -222 74 -212 73 -1008 77
-498 3 -713 1 -713 -6z m1540 -121 c0 -5 -4 -10 -10 -10 -5 0 -10 5 -10 10 0
6 5 10 10 10 6 0 10 -4 10 -10z m500 -185 c0 -29 -47 -65 -85 -65 -19 0 -35 5
-35 10 0 6 -9 10 -20 10 -11 0 -20 -4 -20 -10 0 -5 -4 -10 -10 -10 -5 0 -10 9
-10 20 0 13 7 20 20 20 11 0 20 5 20 10 0 6 23 10 50 10 28 0 50 5 50 10 0 6
9 10 20 10 11 0 20 -7 20 -15z"/>
<path d="M5940 8770 c0 -5 9 -10 20 -10 11 0 20 5 20 10 0 6 -9 10 -20 10 -11
0 -20 -4 -20 -10z"/>
<path d="M3640 8730 c0 -5 5 -10 10 -10 6 0 10 5 10 10 0 6 -4 10 -10 10 -5 0
-10 -4 -10 -10z"/>
<path d="M5860 8650 c0 -27 5 -50 10 -50 6 0 10 23 10 50 0 28 -4 50 -10 50
-5 0 -10 -22 -10 -50z"/>
<path d="M6440 8690 c0 -5 9 -10 20 -10 22 0 29 -35 8 -43 -7 -2 -10 -8 -6
-12 9 -10 38 19 38 38 0 9 6 17 13 20 6 2 8 8 4 13 -4 5 -13 2 -18 -6 -8 -11
-12 -12 -16 -2 -6 14 -43 16 -43 2z"/>
<path d="M7033 8685 c-21 -23 -16 -65 7 -65 17 0 20 7 20 40 0 42 -7 48 -27
25z"/>
<path d="M7160 8670 c0 -5 9 -10 20 -10 11 0 20 -4 20 -10 0 -5 14 -10 30 -10
23 0 30 4 30 20 0 17 -7 20 -50 20 -27 0 -50 -4 -50 -10z"/>
<path d="M6600 8610 c0 -5 5 -10 10 -10 6 0 10 5 10 10 0 6 -4 10 -10 10 -5 0
-10 -4 -10 -10z"/>
<path d="M6920 8610 c0 -5 5 -10 10 -10 6 0 10 5 10 10 0 6 -4 10 -10 10 -5 0
-10 -4 -10 -10z"/>
<path d="M2600 8230 c0 -5 5 -10 10 -10 6 0 10 5 10 10 0 6 -4 10 -10 10 -5 0
-10 -4 -10 -10z"/>
<path d="M8460 8050 c0 -6 -30 -10 -70 -10 -40 0 -70 -4 -70 -10 0 -6 37 -10
90 -10 50 0 90 3 90 6 0 3 -6 12 -14 20 -17 16 -26 18 -26 4z"/>
<path d="M7420 8030 c0 -6 30 -10 70 -10 40 0 70 4 70 10 0 6 -30 10 -70 10
-40 0 -70 -4 -70 -10z"/>
<path d="M8000 8030 c0 -5 18 -10 40 -10 22 0 40 5 40 10 0 6 -18 10 -40 10
-22 0 -40 -4 -40 -10z"/>
<path d="M8680 7720 c0 -11 5 -20 10 -20 6 0 10 9 10 20 0 11 -4 20 -10 20 -5
0 -10 -9 -10 -20z"/>
<path d="M6660 7590 c0 -5 9 -10 20 -10 11 0 20 5 20 10 0 6 -9 10 -20 10 -11
0 -20 -4 -20 -10z"/>
<path d="M6720 7590 c0 -5 14 -10 30 -10 17 0 30 5 30 10 0 6 -13 10 -30 10
-16 0 -30 -4 -30 -10z"/>
<path d="M6820 7590 c0 -5 9 -10 20 -10 11 0 20 5 20 10 0 6 -9 10 -20 10 -11
0 -20 -4 -20 -10z"/>
<path d="M6900 7590 c0 -5 9 -10 20 -10 11 0 20 5 20 10 0 6 -9 10 -20 10 -11
0 -20 -4 -20 -10z"/>
<path d="M4080 7280 c0 -13 7 -20 20 -20 13 0 20 7 20 20 0 13 -7 20 -20 20
-13 0 -20 -7 -20 -20z"/>
<path d="M400 6750 c0 -5 5 -10 10 -10 6 0 10 -43 10 -110 0 -67 4 -110 10
-110 6 0 10 -57 10 -150 0 -93 4 -150 10 -150 6 0 10 -55 10 -146 0 -113 3
-149 14 -160 8 -8 17 -14 20 -14 3 0 6 81 6 180 0 113 -4 180 -10 180 -6 0
-10 50 -10 130 0 80 -4 130 -10 130 -6 0 -10 43 -10 110 0 67 4 110 10 110 6
0 10 5 10 10 0 6 -18 10 -40 10 -22 0 -40 -4 -40 -10z"/>
<path d="M1900 6570 c0 -16 5 -30 10 -30 6 0 10 14 10 30 0 17 -4 30 -10 30
-5 0 -10 -13 -10 -30z"/>
<path d="M1900 6330 c0 -183 1 -190 20 -190 19 0 20 7 20 90 0 53 -4 90 -10
90 -6 0 -10 40 -10 100 0 60 -4 100 -10 100 -6 0 -10 -70 -10 -190z"/>
<path d="M8780 6470 c0 -7 -177 -10 -510 -10 -333 0 -510 -3 -510 -10 0 -7
180 -10 520 -10 513 0 520 0 520 20 0 11 -4 20 -10 20 -5 0 -10 -4 -10 -10z"/>
<path d="M7320 6350 c0 -5 5 -10 10 -10 6 0 10 5 10 10 0 6 -4 10 -10 10 -5 0
-10 -4 -10 -10z"/>
<path d="M4360 6150 c-14 -16 -31 -30 -38 -30 -7 0 -20 -7 -28 -15 -14 -13
-14 -17 1 -31 14 -15 17 -14 34 5 10 12 24 21 30 21 17 0 41 26 41 44 0 11 9
16 30 16 17 0 30 -4 30 -10 0 -5 -4 -10 -10 -10 -5 0 -10 -4 -10 -10 0 -5 14
-10 30 -10 23 0 30 4 30 20 0 17 7 20 40 20 22 0 40 5 40 10 0 15 -77 12 -84
-2 -5 -10 -7 -10 -12 0 -3 7 -25 12 -52 12 -39 -1 -51 -5 -72 -30z"/>
<path d="M940 5890 c0 -16 5 -30 10 -30 6 0 10 14 10 30 0 17 -4 30 -10 30 -5
0 -10 -13 -10 -30z"/>
<path d="M4700 5890 c0 -5 -13 -10 -30 -10 -16 0 -30 -4 -30 -10 0 -5 9 -10
20 -10 23 0 27 -25 6 -46 -17 -16 -66 -19 -66 -4 0 6 9 10 20 10 24 0 25 6 6
26 -17 16 -46 19 -46 4 0 -5 -9 -10 -20 -10 -11 0 -20 -4 -20 -10 0 -5 -9 -10
-20 -10 -29 0 -25 -28 10 -60 17 -15 30 -33 30 -40 0 -40 84 -56 110 -20 8 11
20 20 28 20 29 0 42 28 42 94 l0 66 30 0 c17 0 30 -4 30 -10 0 -5 14 -10 30
-10 23 0 30 -4 30 -20 0 -11 5 -20 10 -20 14 0 12 37 -2 44 -10 5 -10 7 0 12
32 15 4 24 -78 24 -53 0 -90 -4 -90 -10z m20 -120 c0 -23 -4 -30 -20 -30 -23
0 -27 23 -7 45 19 22 27 18 27 -15z"/>
<path d="M4393 5745 c-18 -19 -33 -37 -33 -40 0 -3 14 -5 30 -5 23 0 30 4 30
20 0 11 5 20 10 20 6 0 10 9 10 20 0 27 -10 24 -47 -15z"/>
<path d="M980 5710 c0 -5 5 -10 10 -10 6 0 10 5 10 10 0 6 -4 10 -10 10 -5 0
-10 -4 -10 -10z"/>
<path d="M4300 5670 c0 -5 9 -10 20 -10 11 0 20 5 20 10 0 6 -9 10 -20 10 -11
0 -20 -4 -20 -10z"/>
<path d="M4440 5670 c0 -5 5 -10 10 -10 6 0 10 5 10 10 0 6 -4 10 -10 10 -5 0
-10 -4 -10 -10z"/>
<path d="M7840 5610 c0 -5 5 -10 10 -10 6 0 10 -37 10 -90 0 -53 -4 -90 -10
-90 -6 0 -10 -33 -10 -80 0 -47 -4 -80 -10 -80 -5 0 -10 -25 -10 -56 0 -62
-14 -84 -54 -84 -14 0 -26 -4 -26 -10 0 -5 -4 -10 -10 -10 -6 0 -10 37 -10 90
0 53 4 90 10 90 6 0 10 27 10 60 0 33 4 60 10 60 6 0 10 23 10 50 0 28 5 50
10 50 6 0 10 23 10 50 0 49 -1 50 -30 50 l-30 0 0 -100 c0 -60 -4 -100 -10
-100 -6 0 -10 -33 -10 -80 0 -47 -4 -80 -10 -80 -6 0 -10 -87 -10 -240 0 -153
4 -240 10 -240 6 0 10 5 10 10 0 6 12 10 26 10 43 0 54 21 54 104 0 44 4 76
10 76 6 0 10 9 10 20 0 11 5 20 10 20 6 0 10 -43 10 -110 0 -67 4 -110 10
-110 6 0 10 -9 10 -20 0 -17 -7 -20 -40 -20 -30 0 -40 -4 -40 -16 0 -20 24
-44 44 -44 9 0 16 -4 16 -10 0 -5 14 -10 30 -10 30 0 40 14 18 24 -10 5 -10 7
0 12 9 4 12 71 12 285 0 179 4 279 10 279 6 0 10 67 10 180 l0 180 -30 0 c-16
0 -30 -4 -30 -10z"/>
<path d="M680 5580 c0 -11 5 -20 10 -20 6 0 10 9 10 20 0 11 -4 20 -10 20 -5
0 -10 -9 -10 -20z"/>
<path d="M5940 5580 c0 -11 -4 -20 -10 -20 -5 0 -10 -13 -10 -30 0 -16 -4 -30
-10 -30 -5 0 -10 -9 -10 -20 0 -11 -4 -20 -10 -20 -5 0 -10 -13 -10 -30 0 -16
3 -30 6 -30 11 0 34 29 34 44 0 9 5 16 10 16 6 0 10 9 10 20 0 11 5 20 10 20
6 0 10 18 10 40 0 22 5 40 10 40 6 0 10 5 10 10 0 6 -9 10 -20 10 -13 0 -20
-7 -20 -20z"/>
<path d="M3533 5545 c-19 -21 -16 -25 17 -25 17 0 30 -4 30 -10 0 -5 5 -10 10
-10 6 0 10 9 10 20 0 13 -7 20 -20 20 -11 0 -20 5 -20 10 0 14 -13 12 -27 -5z"/>
<path d="M3080 5530 c0 -5 -13 -10 -28 -10 -16 0 -34 -8 -42 -20 -8 -11 -22
-20 -32 -20 -11 0 -18 -7 -18 -20 0 -13 -7 -20 -20 -20 -13 0 -20 -7 -20 -19
0 -11 -5 -21 -12 -23 -16 -6 56 -78 77 -78 8 0 15 -4 15 -10 0 -5 14 -10 30
-10 17 0 30 -4 30 -10 0 -5 9 -10 20 -10 11 0 20 -4 20 -10 0 -5 9 -10 19 -10
11 0 21 -6 23 -12 3 -9 9 -8 21 4 19 18 23 48 7 48 -5 0 -10 13 -10 28 0 16
-8 34 -20 42 -21 15 -28 50 -10 50 6 0 10 7 10 16 0 20 24 44 44 44 10 0 16
-9 16 -25 0 -27 59 -95 82 -95 8 0 20 -9 28 -20 8 -11 18 -20 22 -20 4 0 8 9
8 20 0 12 7 20 16 20 20 0 44 24 44 44 0 9 5 16 10 16 6 0 10 27 10 60 l0 60
-100 0 c-60 0 -100 -4 -100 -10 0 -5 -22 -10 -50 -10 -27 0 -50 5 -50 10 0 6
-9 10 -20 10 -11 0 -20 -4 -20 -10z m280 -26 c0 -20 -24 -44 -44 -44 -19 0
-21 25 -3 45 16 19 47 19 47 -1z"/>
<path d="M8300 5370 c0 -6 -40 -10 -100 -10 -93 0 -100 -1 -100 -20 0 -20 7
-20 280 -20 180 0 280 -4 280 -10 0 -5 23 -10 50 -10 28 0 50 -4 50 -10 0 -5
9 -10 20 -10 17 0 20 7 20 50 l0 50 -199 0 c-150 0 -201 -3 -204 -12 -4 -10
-8 -9 -16 2 -10 13 -12 13 -22 0 -8 -11 -12 -12 -16 -2 -6 14 -43 16 -43 2z"/>
<path d="M500 5230 c0 -23 4 -30 20 -30 16 0 20 7 20 30 0 23 -4 30 -20 30
-16 0 -20 -7 -20 -30z"/>
<path d="M560 5254 c0 -7 27 -34 34 -34 3 0 6 9 6 20 0 13 -7 20 -20 20 -11 0
-20 -3 -20 -6z"/>
<path d="M8100 4760 c0 -47 -4 -80 -10 -80 -5 0 -10 -22 -10 -50 0 -27 5 -50
10 -50 6 0 10 -9 10 -20 0 -11 5 -20 10 -20 6 0 10 26 10 59 0 38 5 61 13 65
10 5 10 7 0 12 -9 4 -13 31 -13 85 0 46 -4 79 -10 79 -6 0 -10 -33 -10 -80z"/>
<path d="M3860 4750 c0 -5 14 -10 30 -10 17 0 30 -4 30 -10 0 -5 9 -10 20 -10
13 0 20 7 20 20 0 17 -7 20 -50 20 -27 0 -50 -4 -50 -10z"/>
<path d="M160 4730 c0 -5 9 -10 20 -10 11 0 20 5 20 10 0 6 -9 10 -20 10 -11
0 -20 -4 -20 -10z"/>
<path d="M8160 4570 c0 -5 5 -10 10 -10 6 0 10 5 10 10 0 6 -4 10 -10 10 -5 0
-10 -4 -10 -10z"/>
<path d="M140 4550 c0 -5 -9 -10 -20 -10 -17 0 -20 -7 -20 -50 0 -27 5 -50 10
-50 6 0 10 18 10 40 0 22 5 40 10 40 6 0 10 -13 10 -30 0 -16 5 -30 10 -30 6
0 10 23 10 50 0 28 -4 50 -10 50 -5 0 -10 -4 -10 -10z"/>
<path d="M8220 4550 c0 -5 5 -10 10 -10 6 0 10 5 10 10 0 6 -4 10 -10 10 -5 0
-10 -4 -10 -10z"/>
<path d="M660 4430 c0 -5 14 -10 30 -10 17 0 30 5 30 10 0 6 -13 10 -30 10
-16 0 -30 -4 -30 -10z"/>
<path d="M4500 4290 c0 -5 9 -10 20 -10 11 0 20 5 20 10 0 6 -9 10 -20 10 -11
0 -20 -4 -20 -10z"/>
<path d="M4380 4250 c0 -5 5 -10 10 -10 6 0 10 5 10 10 0 6 -4 10 -10 10 -5 0
-10 -4 -10 -10z"/>
<path d="M4040 4210 c0 -5 -9 -10 -20 -10 -11 0 -20 -4 -20 -10 0 -5 -22 -10
-50 -10 -43 0 -50 -3 -50 -20 0 -13 7 -20 18 -20 10 0 24 -9 32 -20 8 -11 22
-20 32 -20 10 0 18 -4 18 -10 0 -5 9 -10 20 -10 13 0 20 7 20 20 0 13 7 20 20
20 11 0 20 5 20 10 0 6 -4 10 -10 10 -5 0 -10 5 -10 10 0 6 9 10 20 10 13 0
20 -7 20 -20 0 -13 7 -20 20 -20 22 0 27 16 8 22 -9 3 -8 9 4 21 11 12 34 17
72 17 31 0 56 5 56 10 0 6 9 10 20 10 11 0 20 5 20 10 0 6 -50 10 -130 10 -80
0 -130 -4 -130 -10z"/>
<path d="M3320 4110 c0 -5 9 -10 20 -10 11 0 20 5 20 10 0 6 -9 10 -20 10 -11
0 -20 -4 -20 -10z"/>
<path d="M60 3270 c0 -5 -7 -10 -16 -10 -15 0 -44 -23 -44 -34 0 -15 37 -4 50
14 8 11 22 20 32 20 10 0 18 5 18 10 0 6 -9 10 -20 10 -11 0 -20 -4 -20 -10z"/>
</g>
</svg>
