<?xml version="1.0" standalone="no"?>
<!DOCTYPE svg PUBLIC "-//W3C//DTD SVG 20010904//EN"
 "http://www.w3.org/TR/2001/REC-SVG-20010904/DTD/svg10.dtd">
<svg version="1.0" xmlns="http://www.w3.org/2000/svg"
 width="864.000000pt" height="864.000000pt" viewBox="0 0 864.000000 864.000000"
 preserveAspectRatio="xMidYMid meet">
<metadata>
Created by potrace 1.14, written by Peter Selinger 2001-2017
</metadata>
<g transform="translate(0.000000,864.000000) scale(0.100000,-0.100000)"
fill="#000000" stroke="none">
<path d="M1285 8584 c-334 -50 -624 -199 -858 -439 -195 -200 -324 -439 -394
-731 l-28 -119 0 -2965 c0 -3160 -3 -2954 39 -3155 2 -11 15 -54 29 -95 181
-541 623 -923 1182 -1019 106 -19 206 -19 3060 -19 3044 -1 2980 -1 3160 36
92 19 238 73 338 123 184 94 308 190 469 366 140 154 284 450 327 673 6 30 14
69 18 85 4 17 9 1353 10 2970 2 2849 1 2943 -17 3045 -11 58 -24 123 -30 145
-134 488 -497 876 -965 1033 -102 35 -113 37 -250 62 -95 17 -257 18 -3050 18
-2445 0 -2965 -2 -3040 -14z"/>
</g>
</svg>
