<?xml version="1.0" standalone="no"?>
<!DOCTYPE svg PUBLIC "-//W3C//DTD SVG 20010904//EN"
 "http://www.w3.org/TR/2001/REC-SVG-20010904/DTD/svg10.dtd">
<svg version="1.0" xmlns="http://www.w3.org/2000/svg"
 width="600.000000pt" height="600.000000pt" viewBox="0 0 600.000000 600.000000"
 preserveAspectRatio="xMidYMid meet">
<metadata>
Created by potrace 1.14, written by Peter Selinger 2001-2017
</metadata>
<g transform="translate(0.000000,600.000000) scale(0.100000,-0.100000)"
fill="#000000" stroke="none">
<path d="M2848 5125 c-146 -28 -292 -96 -389 -182 -30 -26 -373 -367 -762
-758 -479 -480 -723 -732 -753 -777 -96 -144 -138 -284 -138 -463 -1 -180 44
-333 138 -473 66 -99 1529 -1556 1611 -1605 149 -88 330 -134 490 -123 175 11
357 78 472 175 116 97 1498 1491 1540 1554 91 133 137 293 137 472 0 127 -13
192 -60 316 -52 138 -83 173 -839 930 -396 397 -746 744 -778 770 -71 60 -197
122 -303 150 -103 27 -264 33 -366 14z m302 -176 c30 -6 98 -31 150 -56 l95
-45 563 -561 c309 -309 562 -565 562 -569 0 -4 -202 -8 -449 -8 l-448 0 -143
248 c-79 136 -148 252 -155 257 -7 6 -133 10 -331 10 l-319 -1 -157 -269 c-86
-149 -157 -280 -157 -291 -1 -12 34 -82 77 -155 43 -74 113 -196 156 -271 l78
-138 328 0 327 0 145 253 146 252 509 3 510 2 134 -137 c122 -124 139 -147
181 -233 54 -111 69 -176 69 -300 0 -123 -15 -189 -68 -300 l-46 -95 -756
-756 -756 -756 -95 -46 c-120 -58 -187 -71 -337 -65 -93 4 -132 10 -185 30
-141 53 -156 66 -738 645 l-555 553 448 -3 449 -2 144 -250 145 -250 321 -5
c207 -3 325 -1 333 5 7 6 82 132 168 282 l157 272 -111 193 c-61 106 -134 232
-161 281 -28 48 -54 87 -59 87 -5 0 -148 0 -319 0 -170 0 -314 0 -319 0 -5 0
-75 -115 -156 -255 l-147 -255 -497 0 -498 0 -144 148 c-132 134 -149 155
-191 242 -54 110 -70 181 -70 300 0 119 16 190 69 300 l46 95 751 751 c648
648 760 757 818 788 160 88 303 110 488 75z m188 -1094 l113 -195 -92 -158
c-50 -86 -102 -174 -115 -194 l-24 -38 -220 0 -220 0 -24 38 c-13 20 -65 108
-115 194 l-91 157 111 195 112 196 226 0 226 0 113 -195z m-96 -1292 c8 -16
58 -103 111 -195 l98 -167 -112 -196 -112 -195 -227 0 -226 0 -112 195 -112
194 112 196 111 195 228 0 228 0 13 -27z"/>
<path d="M1862 3358 c-5 -7 -62 -104 -126 -216 l-117 -203 123 -212 124 -212
250 -3 251 -2 88 152 c48 84 94 166 102 181 9 16 23 32 33 35 11 4 202 5 426
2 l407 -5 105 -183 105 -182 251 2 251 3 123 213 122 212 -122 215 -123 214
-251 1 -250 0 -104 -181 c-57 -99 -111 -184 -119 -189 -9 -4 -198 -7 -420 -6
l-405 1 -33 55 c-19 30 -68 115 -110 188 l-75 132 -248 0 c-186 0 -250 -3
-258 -12z"/>
</g>
</svg>
